<?xml version="1.0" encoding="UTF-8" standalone="no"?>
<svg
   xmlns:dc="http://purl.org/dc/elements/1.1/"
   xmlns:cc="http://creativecommons.org/ns#"
   xmlns:rdf="http://www.w3.org/1999/02/22-rdf-syntax-ns#"
   xmlns:svg="http://www.w3.org/2000/svg"
   xmlns="http://www.w3.org/2000/svg"
   id="svg2"
   version="1.1"
   width="60"
   height="60"
   viewBox="0 0 60 60">
  <metadata
     id="metadata8">
    <rdf:RDF>
      <cc:Work
         rdf:about="">
        <dc:format>image/svg+xml</dc:format>
        <dc:type
           rdf:resource="http://purl.org/dc/dcmitype/StillImage" />
        <dc:title></dc:title>
      </cc:Work>
    </rdf:RDF>
  </metadata>
  <defs
     id="defs6" />
  <g
     transform="matrix(0.5,0,0,0.5,0,300)"
     id="g4702"
     style="fill:#f1e5e3;fill-opacity:1">
    <g
       id="g4362"
       style="fill:#f1e5e3;fill-opacity:1">
      <g
         style="fill:#f1e5e3;fill-opacity:1"
         transform="matrix(1.2,0,0,1.2,0,300)"
         id="g4187">
        <g
           style="fill:#f1e5e3;fill-opacity:1"
           id="g8094">
          <g
             style="fill:#f1e5e3;fill-opacity:1"
             transform="matrix(0.2,0,0,0.2,0,200)"
             id="g8070" />
          <g
             style="fill:#f1e5e3;fill-opacity:1"
             id="g8078"
             transform="matrix(0.2,0,0,0.2,100,200)" />
          <g
             style="fill:#f1e5e3;fill-opacity:1"
             transform="matrix(0.2,0,0,0.2,200,200)"
             id="g8082" />
          <g
             style="fill:#f1e5e3;fill-opacity:1"
             id="g8086"
             transform="matrix(0.2,0,0,0.2,300,200)" />
          <g
             style="fill:#f1e5e3;fill-opacity:1"
             transform="matrix(0.2,0,0,0.2,400,200)"
             id="g8090" />
        </g>
        <g
           style="fill:#f1e5e3;fill-opacity:1"
           id="g8106"
           transform="translate(0,-50)">
          <g
             style="fill:#f1e5e3;fill-opacity:1"
             id="g8108"
             transform="matrix(0.2,0,0,0.2,0,200)" />
          <g
             style="fill:#f1e5e3;fill-opacity:1"
             transform="matrix(0.2,0,0,0.2,100,200)"
             id="g8112" />
          <g
             style="fill:#f1e5e3;fill-opacity:1"
             id="g8116"
             transform="matrix(0.2,0,0,0.2,200,200)" />
          <g
             style="fill:#f1e5e3;fill-opacity:1"
             transform="matrix(0.2,0,0,0.2,300,200)"
             id="g8120" />
          <g
             style="fill:#f1e5e3;fill-opacity:1"
             id="g8124"
             transform="matrix(0.2,0,0,0.2,400,200)" />
        </g>
        <g
           style="fill:#f1e5e3;fill-opacity:1"
           transform="translate(0,-100)"
           id="g8128">
          <g
             style="fill:#f1e5e3;fill-opacity:1"
             transform="matrix(0.2,0,0,0.2,0,200)"
             id="g8130" />
          <g
             style="fill:#f1e5e3;fill-opacity:1"
             id="g8134"
             transform="matrix(0.2,0,0,0.2,100,200)" />
          <g
             style="fill:#f1e5e3;fill-opacity:1"
             transform="matrix(0.2,0,0,0.2,200,200)"
             id="g8138" />
          <g
             style="fill:#f1e5e3;fill-opacity:1"
             id="g8142"
             transform="matrix(0.2,0,0,0.2,300,200)" />
          <g
             style="fill:#f1e5e3;fill-opacity:1"
             transform="matrix(0.2,0,0,0.2,400,200)"
             id="g8146" />
        </g>
        <g
           style="fill:#f1e5e3;fill-opacity:1"
           id="g8150"
           transform="translate(0,-150)">
          <g
             style="fill:#f1e5e3;fill-opacity:1"
             id="g8152"
             transform="matrix(0.2,0,0,0.2,0,200)" />
          <g
             style="fill:#f1e5e3;fill-opacity:1"
             transform="matrix(0.2,0,0,0.2,100,200)"
             id="g8156" />
          <g
             style="fill:#f1e5e3;fill-opacity:1"
             id="g8160"
             transform="matrix(0.2,0,0,0.2,200,200)" />
          <g
             style="fill:#f1e5e3;fill-opacity:1"
             transform="matrix(0.2,0,0,0.2,300,200)"
             id="g8164" />
          <g
             style="fill:#f1e5e3;fill-opacity:1"
             id="g8168"
             transform="matrix(0.2,0,0,0.2,400,200)" />
        </g>
        <g
           style="fill:#f1e5e3;fill-opacity:1"
           transform="translate(0,-200)"
           id="g8172">
          <g
             style="fill:#f1e5e3;fill-opacity:1"
             transform="matrix(0.2,0,0,0.2,0,200)"
             id="g8174" />
          <g
             style="fill:#f1e5e3;fill-opacity:1"
             id="g8178"
             transform="matrix(0.2,0,0,0.2,100,200)" />
          <g
             style="fill:#f1e5e3;fill-opacity:1"
             transform="matrix(0.2,0,0,0.2,200,200)"
             id="g8182" />
          <g
             style="fill:#f1e5e3;fill-opacity:1"
             id="g8186"
             transform="matrix(0.2,0,0,0.2,300,200)" />
          <g
             style="fill:#f1e5e3;fill-opacity:1"
             transform="matrix(0.2,0,0,0.2,400,200)"
             id="g8190" />
        </g>
      </g>
      <g
         id="g4250"
         transform="matrix(1.2,0,0,1.2,600,300)"
         style="fill:#f1e5e3;fill-opacity:1">
        <g
           id="g4252"
           style="fill:#f1e5e3;fill-opacity:1">
          <g
             id="g4254"
             transform="matrix(0.2,0,0,0.2,0,200)"
             style="fill:#f1e5e3;fill-opacity:1" />
          <g
             transform="matrix(0.2,0,0,0.2,100,200)"
             id="g4258"
             style="fill:#f1e5e3;fill-opacity:1" />
          <g
             id="g4262"
             transform="matrix(0.2,0,0,0.2,200,200)"
             style="fill:#f1e5e3;fill-opacity:1" />
          <g
             transform="matrix(0.2,0,0,0.2,300,200)"
             id="g4266"
             style="fill:#f1e5e3;fill-opacity:1" />
          <g
             id="g4270"
             transform="matrix(0.2,0,0,0.2,400,200)"
             style="fill:#f1e5e3;fill-opacity:1" />
        </g>
        <g
           transform="translate(0,-50)"
           id="g4274"
           style="fill:#f1e5e3;fill-opacity:1">
          <g
             transform="matrix(0.2,0,0,0.2,0,200)"
             id="g4276"
             style="fill:#f1e5e3;fill-opacity:1" />
          <g
             id="g4280"
             transform="matrix(0.2,0,0,0.2,100,200)"
             style="fill:#f1e5e3;fill-opacity:1" />
          <g
             transform="matrix(0.2,0,0,0.2,200,200)"
             id="g4284"
             style="fill:#f1e5e3;fill-opacity:1" />
          <g
             id="g4288"
             transform="matrix(0.2,0,0,0.2,300,200)"
             style="fill:#f1e5e3;fill-opacity:1" />
          <g
             transform="matrix(0.2,0,0,0.2,400,200)"
             id="g4292"
             style="fill:#f1e5e3;fill-opacity:1" />
        </g>
        <g
           id="g4296"
           transform="translate(0,-100)"
           style="fill:#f1e5e3;fill-opacity:1">
          <g
             id="g4298"
             transform="matrix(0.2,0,0,0.2,0,200)"
             style="fill:#f1e5e3;fill-opacity:1" />
          <g
             transform="matrix(0.2,0,0,0.2,100,200)"
             id="g4302"
             style="fill:#f1e5e3;fill-opacity:1" />
          <g
             id="g4306"
             transform="matrix(0.2,0,0,0.2,200,200)"
             style="fill:#f1e5e3;fill-opacity:1" />
          <g
             transform="matrix(0.2,0,0,0.2,300,200)"
             id="g4310"
             style="fill:#f1e5e3;fill-opacity:1" />
          <g
             id="g4314"
             transform="matrix(0.2,0,0,0.2,400,200)"
             style="fill:#f1e5e3;fill-opacity:1" />
        </g>
        <g
           transform="translate(0,-150)"
           id="g4318"
           style="fill:#f1e5e3;fill-opacity:1">
          <g
             transform="matrix(0.2,0,0,0.2,0,200)"
             id="g4320"
             style="fill:#f1e5e3;fill-opacity:1" />
          <g
             id="g4324"
             transform="matrix(0.2,0,0,0.2,100,200)"
             style="fill:#f1e5e3;fill-opacity:1" />
          <g
             transform="matrix(0.2,0,0,0.2,200,200)"
             id="g4328"
             style="fill:#f1e5e3;fill-opacity:1" />
          <g
             id="g4332"
             transform="matrix(0.2,0,0,0.2,300,200)"
             style="fill:#f1e5e3;fill-opacity:1" />
          <g
             transform="matrix(0.2,0,0,0.2,400,200)"
             id="g4336"
             style="fill:#f1e5e3;fill-opacity:1" />
        </g>
        <g
           id="g4340"
           transform="translate(0,-200)"
           style="fill:#f1e5e3;fill-opacity:1">
          <g
             id="g4342"
             transform="matrix(0.2,0,0,0.2,0,200)"
             style="fill:#f1e5e3;fill-opacity:1" />
          <g
             transform="matrix(0.2,0,0,0.2,100,200)"
             id="g4346"
             style="fill:#f1e5e3;fill-opacity:1" />
          <g
             id="g4350"
             transform="matrix(0.2,0,0,0.2,200,200)"
             style="fill:#f1e5e3;fill-opacity:1" />
          <g
             transform="matrix(0.2,0,0,0.2,300,200)"
             id="g4354"
             style="fill:#f1e5e3;fill-opacity:1" />
          <g
             id="g4358"
             transform="matrix(0.2,0,0,0.2,400,200)"
             style="fill:#f1e5e3;fill-opacity:1" />
        </g>
      </g>
    </g>
    <g
       id="g4476"
       transform="translate(0,-300)"
       style="fill:#f1e5e3;fill-opacity:1">
      <g
         id="g4478"
         transform="matrix(1.2,0,0,1.2,0,300)"
         style="fill:#f1e5e3;fill-opacity:1">
        <g
           id="g4480"
           style="fill:#f1e5e3;fill-opacity:1">
          <g
             id="g4482"
             transform="matrix(0.2,0,0,0.2,0,200)"
             style="fill:#f1e5e3;fill-opacity:1" />
          <g
             transform="matrix(0.2,0,0,0.2,100,200)"
             id="g4486"
             style="fill:#f1e5e3;fill-opacity:1" />
          <g
             id="g4490"
             transform="matrix(0.2,0,0,0.2,200,200)"
             style="fill:#f1e5e3;fill-opacity:1" />
          <g
             transform="matrix(0.2,0,0,0.2,300,200)"
             id="g4494"
             style="fill:#f1e5e3;fill-opacity:1" />
          <g
             id="g4498"
             transform="matrix(0.2,0,0,0.2,400,200)"
             style="fill:#f1e5e3;fill-opacity:1" />
        </g>
        <g
           transform="translate(0,-50)"
           id="g4502"
           style="fill:#f1e5e3;fill-opacity:1">
          <g
             transform="matrix(0.2,0,0,0.2,0,200)"
             id="g4504"
             style="fill:#f1e5e3;fill-opacity:1" />
          <g
             id="g4508"
             transform="matrix(0.2,0,0,0.2,100,200)"
             style="fill:#f1e5e3;fill-opacity:1" />
          <g
             transform="matrix(0.2,0,0,0.2,200,200)"
             id="g4512"
             style="fill:#f1e5e3;fill-opacity:1" />
          <g
             id="g4516"
             transform="matrix(0.2,0,0,0.2,300,200)"
             style="fill:#f1e5e3;fill-opacity:1" />
          <g
             transform="matrix(0.2,0,0,0.2,400,200)"
             id="g4520"
             style="fill:#f1e5e3;fill-opacity:1" />
        </g>
        <g
           id="g4524"
           transform="translate(0,-100)"
           style="fill:#f1e5e3;fill-opacity:1">
          <g
             id="g4526"
             transform="matrix(0.2,0,0,0.2,0,200)"
             style="fill:#f1e5e3;fill-opacity:1" />
          <g
             transform="matrix(0.2,0,0,0.2,100,200)"
             id="g4530"
             style="fill:#f1e5e3;fill-opacity:1" />
          <g
             id="g4534"
             transform="matrix(0.2,0,0,0.2,200,200)"
             style="fill:#f1e5e3;fill-opacity:1" />
          <g
             transform="matrix(0.2,0,0,0.2,300,200)"
             id="g4538"
             style="fill:#f1e5e3;fill-opacity:1" />
          <g
             id="g4542"
             transform="matrix(0.2,0,0,0.2,400,200)"
             style="fill:#f1e5e3;fill-opacity:1" />
        </g>
        <g
           transform="translate(0,-150)"
           id="g4546"
           style="fill:#f1e5e3;fill-opacity:1">
          <g
             transform="matrix(0.2,0,0,0.2,0,200)"
             id="g4548"
             style="fill:#f1e5e3;fill-opacity:1" />
          <g
             id="g4552"
             transform="matrix(0.2,0,0,0.2,100,200)"
             style="fill:#f1e5e3;fill-opacity:1" />
          <g
             transform="matrix(0.2,0,0,0.2,200,200)"
             id="g4556"
             style="fill:#f1e5e3;fill-opacity:1" />
          <g
             id="g4560"
             transform="matrix(0.2,0,0,0.2,300,200)"
             style="fill:#f1e5e3;fill-opacity:1" />
          <g
             transform="matrix(0.2,0,0,0.2,400,200)"
             id="g4564"
             style="fill:#f1e5e3;fill-opacity:1" />
        </g>
        <g
           id="g4568"
           transform="translate(0,-200)"
           style="fill:#f1e5e3;fill-opacity:1">
          <g
             id="g4570"
             transform="matrix(0.2,0,0,0.2,0,200)"
             style="fill:#f1e5e3;fill-opacity:1" />
          <g
             transform="matrix(0.2,0,0,0.2,100,200)"
             id="g4574"
             style="fill:#f1e5e3;fill-opacity:1" />
          <g
             id="g4578"
             transform="matrix(0.2,0,0,0.2,200,200)"
             style="fill:#f1e5e3;fill-opacity:1" />
          <g
             transform="matrix(0.2,0,0,0.2,300,200)"
             id="g4582"
             style="fill:#f1e5e3;fill-opacity:1" />
          <g
             id="g4586"
             transform="matrix(0.2,0,0,0.2,400,200)"
             style="fill:#f1e5e3;fill-opacity:1" />
        </g>
      </g>
      <g
         style="fill:#f1e5e3;fill-opacity:1"
         transform="matrix(1.2,0,0,1.2,600,300)"
         id="g4590">
        <g
           style="fill:#f1e5e3;fill-opacity:1"
           id="g4592">
          <g
             style="fill:#f1e5e3;fill-opacity:1"
             transform="matrix(0.2,0,0,0.2,0,200)"
             id="g4594" />
          <g
             style="fill:#f1e5e3;fill-opacity:1"
             id="g4598"
             transform="matrix(0.2,0,0,0.2,100,200)" />
          <g
             style="fill:#f1e5e3;fill-opacity:1"
             transform="matrix(0.2,0,0,0.2,200,200)"
             id="g4602" />
          <g
             style="fill:#f1e5e3;fill-opacity:1"
             id="g4606"
             transform="matrix(0.2,0,0,0.2,300,200)" />
          <g
             style="fill:#f1e5e3;fill-opacity:1"
             transform="matrix(0.2,0,0,0.2,400,200)"
             id="g4610" />
        </g>
        <g
           style="fill:#f1e5e3;fill-opacity:1"
           id="g4614"
           transform="translate(0,-50)">
          <g
             style="fill:#f1e5e3;fill-opacity:1"
             id="g4616"
             transform="matrix(0.2,0,0,0.2,0,200)" />
          <g
             style="fill:#f1e5e3;fill-opacity:1"
             transform="matrix(0.2,0,0,0.2,100,200)"
             id="g4620" />
          <g
             style="fill:#f1e5e3;fill-opacity:1"
             id="g4624"
             transform="matrix(0.2,0,0,0.2,200,200)" />
          <g
             style="fill:#f1e5e3;fill-opacity:1"
             transform="matrix(0.2,0,0,0.2,300,200)"
             id="g4628" />
          <g
             style="fill:#f1e5e3;fill-opacity:1"
             id="g4632"
             transform="matrix(0.2,0,0,0.2,400,200)" />
        </g>
        <g
           style="fill:#f1e5e3;fill-opacity:1"
           transform="translate(0,-100)"
           id="g4636">
          <g
             style="fill:#f1e5e3;fill-opacity:1"
             transform="matrix(0.2,0,0,0.2,0,200)"
             id="g4638" />
          <g
             style="fill:#f1e5e3;fill-opacity:1"
             id="g4642"
             transform="matrix(0.2,0,0,0.2,100,200)" />
          <g
             style="fill:#f1e5e3;fill-opacity:1"
             transform="matrix(0.2,0,0,0.2,200,200)"
             id="g4646" />
          <g
             style="fill:#f1e5e3;fill-opacity:1"
             id="g4650"
             transform="matrix(0.2,0,0,0.2,300,200)" />
          <g
             style="fill:#f1e5e3;fill-opacity:1"
             transform="matrix(0.2,0,0,0.2,400,200)"
             id="g4654" />
        </g>
        <g
           style="fill:#f1e5e3;fill-opacity:1"
           id="g4658"
           transform="translate(0,-150)">
          <g
             style="fill:#f1e5e3;fill-opacity:1"
             id="g4660"
             transform="matrix(0.2,0,0,0.2,0,200)" />
          <g
             style="fill:#f1e5e3;fill-opacity:1"
             transform="matrix(0.2,0,0,0.2,100,200)"
             id="g4664" />
          <g
             style="fill:#f1e5e3;fill-opacity:1"
             id="g4668"
             transform="matrix(0.2,0,0,0.2,200,200)" />
          <g
             style="fill:#f1e5e3;fill-opacity:1"
             transform="matrix(0.2,0,0,0.2,300,200)"
             id="g4672" />
          <g
             style="fill:#f1e5e3;fill-opacity:1"
             id="g4676"
             transform="matrix(0.2,0,0,0.2,400,200)" />
        </g>
        <g
           style="fill:#f1e5e3;fill-opacity:1"
           transform="translate(0,-200)"
           id="g4680">
          <g
             style="fill:#f1e5e3;fill-opacity:1"
             transform="matrix(0.2,0,0,0.2,0,200)"
             id="g4682" />
          <g
             style="fill:#f1e5e3;fill-opacity:1"
             id="g4686"
             transform="matrix(0.2,0,0,0.2,100,200)" />
          <g
             style="fill:#f1e5e3;fill-opacity:1"
             transform="matrix(0.2,0,0,0.2,200,200)"
             id="g4690" />
          <g
             style="fill:#f1e5e3;fill-opacity:1"
             id="g4694"
             transform="matrix(0.2,0,0,0.2,300,200)" />
          <g
             style="fill:#f1e5e3;fill-opacity:1"
             transform="matrix(0.2,0,0,0.2,400,200)"
             id="g4698" />
        </g>
      </g>
    </g>
  </g>
  <g
     id="g4932"
     style="fill:#f1e5e3;fill-opacity:1"
     transform="scale(0.5)">
    <g
       id="g4934"
       transform="matrix(1.2,0,0,1.2,0,300)"
       style="fill:#f1e5e3;fill-opacity:1">
      <g
         id="g4936"
         style="fill:#f1e5e3;fill-opacity:1">
        <g
           id="g4938"
           transform="matrix(0.2,0,0,0.2,0,200)"
           style="fill:#f1e5e3;fill-opacity:1" />
        <g
           transform="matrix(0.2,0,0,0.2,100,200)"
           id="g4942"
           style="fill:#f1e5e3;fill-opacity:1" />
        <g
           id="g4946"
           transform="matrix(0.2,0,0,0.2,200,200)"
           style="fill:#f1e5e3;fill-opacity:1" />
        <g
           transform="matrix(0.2,0,0,0.2,300,200)"
           id="g4950"
           style="fill:#f1e5e3;fill-opacity:1" />
        <g
           id="g4954"
           transform="matrix(0.2,0,0,0.2,400,200)"
           style="fill:#f1e5e3;fill-opacity:1" />
      </g>
      <g
         transform="translate(0,-50)"
         id="g4958"
         style="fill:#f1e5e3;fill-opacity:1">
        <g
           transform="matrix(0.2,0,0,0.2,0,200)"
           id="g4960"
           style="fill:#f1e5e3;fill-opacity:1" />
        <g
           id="g4964"
           transform="matrix(0.2,0,0,0.2,100,200)"
           style="fill:#f1e5e3;fill-opacity:1" />
        <g
           transform="matrix(0.2,0,0,0.2,200,200)"
           id="g4968"
           style="fill:#f1e5e3;fill-opacity:1" />
        <g
           id="g4972"
           transform="matrix(0.2,0,0,0.2,300,200)"
           style="fill:#f1e5e3;fill-opacity:1" />
        <g
           transform="matrix(0.2,0,0,0.2,400,200)"
           id="g4976"
           style="fill:#f1e5e3;fill-opacity:1" />
      </g>
      <g
         id="g4980"
         transform="translate(0,-100)"
         style="fill:#f1e5e3;fill-opacity:1">
        <g
           id="g4982"
           transform="matrix(0.2,0,0,0.2,0,200)"
           style="fill:#f1e5e3;fill-opacity:1" />
        <g
           transform="matrix(0.2,0,0,0.2,100,200)"
           id="g4986"
           style="fill:#f1e5e3;fill-opacity:1" />
        <g
           id="g4990"
           transform="matrix(0.2,0,0,0.2,200,200)"
           style="fill:#f1e5e3;fill-opacity:1" />
        <g
           transform="matrix(0.2,0,0,0.2,300,200)"
           id="g4994"
           style="fill:#f1e5e3;fill-opacity:1" />
        <g
           id="g4998"
           transform="matrix(0.2,0,0,0.2,400,200)"
           style="fill:#f1e5e3;fill-opacity:1" />
      </g>
      <g
         transform="translate(0,-150)"
         id="g5002"
         style="fill:#f1e5e3;fill-opacity:1">
        <g
           transform="matrix(0.2,0,0,0.2,0,200)"
           id="g5004"
           style="fill:#f1e5e3;fill-opacity:1" />
        <g
           id="g5008"
           transform="matrix(0.2,0,0,0.2,100,200)"
           style="fill:#f1e5e3;fill-opacity:1" />
        <g
           transform="matrix(0.2,0,0,0.2,200,200)"
           id="g5012"
           style="fill:#f1e5e3;fill-opacity:1" />
        <g
           id="g5016"
           transform="matrix(0.2,0,0,0.2,300,200)"
           style="fill:#f1e5e3;fill-opacity:1" />
        <g
           transform="matrix(0.2,0,0,0.2,400,200)"
           id="g5020"
           style="fill:#f1e5e3;fill-opacity:1" />
      </g>
      <g
         id="g5024"
         transform="translate(0,-200)"
         style="fill:#f1e5e3;fill-opacity:1">
        <g
           id="g5026"
           transform="matrix(0.2,0,0,0.2,0,200)"
           style="fill:#f1e5e3;fill-opacity:1" />
        <g
           transform="matrix(0.2,0,0,0.2,100,200)"
           id="g5030"
           style="fill:#f1e5e3;fill-opacity:1" />
        <g
           id="g5034"
           transform="matrix(0.2,0,0,0.2,200,200)"
           style="fill:#f1e5e3;fill-opacity:1" />
        <g
           transform="matrix(0.2,0,0,0.2,300,200)"
           id="g5038"
           style="fill:#f1e5e3;fill-opacity:1" />
        <g
           id="g5042"
           transform="matrix(0.2,0,0,0.2,400,200)"
           style="fill:#f1e5e3;fill-opacity:1" />
      </g>
    </g>
    <g
       style="fill:#f1e5e3;fill-opacity:1"
       transform="matrix(1.2,0,0,1.2,600,300)"
       id="g5046">
      <g
         style="fill:#f1e5e3;fill-opacity:1"
         id="g5048">
        <g
           style="fill:#f1e5e3;fill-opacity:1"
           transform="matrix(0.2,0,0,0.2,0,200)"
           id="g5050" />
        <g
           style="fill:#f1e5e3;fill-opacity:1"
           id="g5054"
           transform="matrix(0.2,0,0,0.2,100,200)" />
        <g
           style="fill:#f1e5e3;fill-opacity:1"
           transform="matrix(0.2,0,0,0.2,200,200)"
           id="g5058" />
        <g
           style="fill:#f1e5e3;fill-opacity:1"
           id="g5062"
           transform="matrix(0.2,0,0,0.2,300,200)" />
        <g
           style="fill:#f1e5e3;fill-opacity:1"
           transform="matrix(0.2,0,0,0.2,400,200)"
           id="g5066" />
      </g>
      <g
         style="fill:#f1e5e3;fill-opacity:1"
         id="g5070"
         transform="translate(0,-50)">
        <g
           style="fill:#f1e5e3;fill-opacity:1"
           id="g5072"
           transform="matrix(0.2,0,0,0.2,0,200)" />
        <g
           style="fill:#f1e5e3;fill-opacity:1"
           transform="matrix(0.2,0,0,0.2,100,200)"
           id="g5076" />
        <g
           style="fill:#f1e5e3;fill-opacity:1"
           id="g5080"
           transform="matrix(0.2,0,0,0.2,200,200)" />
        <g
           style="fill:#f1e5e3;fill-opacity:1"
           transform="matrix(0.2,0,0,0.2,300,200)"
           id="g5084" />
        <g
           style="fill:#f1e5e3;fill-opacity:1"
           id="g5088"
           transform="matrix(0.2,0,0,0.2,400,200)" />
      </g>
      <g
         style="fill:#f1e5e3;fill-opacity:1"
         transform="translate(0,-100)"
         id="g5092">
        <g
           style="fill:#f1e5e3;fill-opacity:1"
           transform="matrix(0.2,0,0,0.2,0,200)"
           id="g5094" />
        <g
           style="fill:#f1e5e3;fill-opacity:1"
           id="g5098"
           transform="matrix(0.2,0,0,0.2,100,200)" />
        <g
           style="fill:#f1e5e3;fill-opacity:1"
           transform="matrix(0.2,0,0,0.2,200,200)"
           id="g5102" />
        <g
           style="fill:#f1e5e3;fill-opacity:1"
           id="g5106"
           transform="matrix(0.2,0,0,0.2,300,200)" />
        <g
           style="fill:#f1e5e3;fill-opacity:1"
           transform="matrix(0.2,0,0,0.2,400,200)"
           id="g5110" />
      </g>
      <g
         style="fill:#f1e5e3;fill-opacity:1"
         id="g5114"
         transform="translate(0,-150)">
        <g
           style="fill:#f1e5e3;fill-opacity:1"
           id="g5116"
           transform="matrix(0.2,0,0,0.2,0,200)" />
        <g
           style="fill:#f1e5e3;fill-opacity:1"
           transform="matrix(0.2,0,0,0.2,100,200)"
           id="g5120" />
        <g
           style="fill:#f1e5e3;fill-opacity:1"
           id="g5124"
           transform="matrix(0.2,0,0,0.2,200,200)" />
        <g
           style="fill:#f1e5e3;fill-opacity:1"
           transform="matrix(0.2,0,0,0.2,300,200)"
           id="g5128" />
        <g
           style="fill:#f1e5e3;fill-opacity:1"
           id="g5132"
           transform="matrix(0.2,0,0,0.2,400,200)" />
      </g>
      <g
         style="fill:#f1e5e3;fill-opacity:1"
         transform="translate(0,-200)"
         id="g5136">
        <g
           style="fill:#f1e5e3;fill-opacity:1"
           transform="matrix(0.2,0,0,0.2,0,200)"
           id="g5138" />
        <g
           style="fill:#f1e5e3;fill-opacity:1"
           id="g5142"
           transform="matrix(0.2,0,0,0.2,100,200)" />
        <g
           style="fill:#f1e5e3;fill-opacity:1"
           transform="matrix(0.2,0,0,0.2,200,200)"
           id="g5146" />
        <g
           style="fill:#f1e5e3;fill-opacity:1"
           id="g5150"
           transform="matrix(0.2,0,0,0.2,300,200)" />
        <g
           style="fill:#f1e5e3;fill-opacity:1"
           transform="matrix(0.2,0,0,0.2,400,200)"
           id="g5154" />
      </g>
    </g>
  </g>
  <g
     style="fill:#f1e5e3;fill-opacity:1"
     transform="scale(0.6)"
     id="g5160">
    <g
       style="fill:#f1e5e3;fill-opacity:1"
       id="g5162">
      <g
         style="fill:#f1e5e3;fill-opacity:1"
         transform="matrix(0.2,0,0,0.2,0,200)"
         id="g5164" />
      <g
         style="fill:#f1e5e3;fill-opacity:1"
         id="g5168"
         transform="matrix(0.2,0,0,0.2,100,200)" />
      <g
         style="fill:#f1e5e3;fill-opacity:1"
         transform="matrix(0.2,0,0,0.2,200,200)"
         id="g5172" />
      <g
         style="fill:#f1e5e3;fill-opacity:1"
         id="g5176"
         transform="matrix(0.2,0,0,0.2,300,200)" />
      <g
         style="fill:#f1e5e3;fill-opacity:1"
         transform="matrix(0.2,0,0,0.2,400,200)"
         id="g5180" />
    </g>
    <g
       style="fill:#f1e5e3;fill-opacity:1"
       id="g5184"
       transform="translate(0,-50)">
      <g
         style="fill:#f1e5e3;fill-opacity:1"
         id="g5186"
         transform="matrix(0.2,0,0,0.2,0,200)" />
      <g
         style="fill:#f1e5e3;fill-opacity:1"
         transform="matrix(0.2,0,0,0.2,100,200)"
         id="g5190" />
      <g
         style="fill:#f1e5e3;fill-opacity:1"
         id="g5194"
         transform="matrix(0.2,0,0,0.2,200,200)" />
      <g
         style="fill:#f1e5e3;fill-opacity:1"
         transform="matrix(0.2,0,0,0.2,300,200)"
         id="g5198" />
      <g
         style="fill:#f1e5e3;fill-opacity:1"
         id="g5202"
         transform="matrix(0.2,0,0,0.2,400,200)" />
    </g>
    <g
       style="fill:#f1e5e3;fill-opacity:1"
       transform="translate(0,-100)"
       id="g5206">
      <g
         style="fill:#f1e5e3;fill-opacity:1"
         transform="matrix(0.2,0,0,0.2,0,200)"
         id="g5208" />
      <g
         style="fill:#f1e5e3;fill-opacity:1"
         id="g5212"
         transform="matrix(0.2,0,0,0.2,100,200)" />
      <g
         style="fill:#f1e5e3;fill-opacity:1"
         transform="matrix(0.2,0,0,0.2,200,200)"
         id="g5216" />
      <g
         style="fill:#f1e5e3;fill-opacity:1"
         id="g5220"
         transform="matrix(0.2,0,0,0.2,300,200)" />
      <g
         style="fill:#f1e5e3;fill-opacity:1"
         transform="matrix(0.2,0,0,0.2,400,200)"
         id="g5224" />
    </g>
    <g
       style="fill:#f1e5e3;fill-opacity:1"
       id="g5228"
       transform="translate(0,-150)">
      <g
         style="fill:#f1e5e3;fill-opacity:1"
         id="g5230"
         transform="matrix(0.2,0,0,0.2,0,200)" />
      <g
         style="fill:#f1e5e3;fill-opacity:1"
         transform="matrix(0.2,0,0,0.2,100,200)"
         id="g5234" />
      <g
         style="fill:#f1e5e3;fill-opacity:1"
         id="g5238"
         transform="matrix(0.2,0,0,0.2,200,200)" />
      <g
         style="fill:#f1e5e3;fill-opacity:1"
         transform="matrix(0.2,0,0,0.2,300,200)"
         id="g5242" />
      <g
         style="fill:#f1e5e3;fill-opacity:1"
         id="g5246"
         transform="matrix(0.2,0,0,0.2,400,200)" />
    </g>
    <g
       style="fill:#f1e5e3;fill-opacity:1"
       transform="translate(0,-200)"
       id="g5250">
      <g
         style="fill:#f1e5e3;fill-opacity:1"
         transform="matrix(0.2,0,0,0.2,0,200)"
         id="g5252" />
      <g
         style="fill:#f1e5e3;fill-opacity:1"
         id="g5256"
         transform="matrix(0.2,0,0,0.2,100,200)" />
      <g
         style="fill:#f1e5e3;fill-opacity:1"
         transform="matrix(0.2,0,0,0.2,200,200)"
         id="g5260" />
      <g
         style="fill:#f1e5e3;fill-opacity:1"
         id="g5264"
         transform="matrix(0.2,0,0,0.2,300,200)" />
      <g
         style="fill:#f1e5e3;fill-opacity:1"
         transform="matrix(0.2,0,0,0.2,400,200)"
         id="g5268" />
    </g>
  </g>
  <g
     id="g5274"
     style="fill:#f1e5e3;fill-opacity:1"
     transform="matrix(0.6,0,0,0.6,300,0)">
    <g
       id="g5276"
       transform="matrix(0.2,0,0,0.2,0,200)"
       style="fill:#f1e5e3;fill-opacity:1" />
    <g
       transform="matrix(0.2,0,0,0.2,100,200)"
       id="g5280"
       style="fill:#f1e5e3;fill-opacity:1" />
    <g
       id="g5284"
       transform="matrix(0.2,0,0,0.2,200,200)"
       style="fill:#f1e5e3;fill-opacity:1" />
    <g
       transform="matrix(0.2,0,0,0.2,300,200)"
       id="g5288"
       style="fill:#f1e5e3;fill-opacity:1" />
    <g
       id="g5292"
       transform="matrix(0.2,0,0,0.2,400,200)"
       style="fill:#f1e5e3;fill-opacity:1" />
  </g>
  <g
     transform="matrix(0.6,0,0,0.6,300,-30)"
     id="g5296"
     style="fill:#f1e5e3;fill-opacity:1">
    <g
       transform="matrix(0.2,0,0,0.2,0,200)"
       id="g5298"
       style="fill:#f1e5e3;fill-opacity:1" />
    <g
       id="g5302"
       transform="matrix(0.2,0,0,0.2,100,200)"
       style="fill:#f1e5e3;fill-opacity:1" />
    <g
       transform="matrix(0.2,0,0,0.2,200,200)"
       id="g5306"
       style="fill:#f1e5e3;fill-opacity:1" />
    <g
       id="g5310"
       transform="matrix(0.2,0,0,0.2,300,200)"
       style="fill:#f1e5e3;fill-opacity:1" />
    <g
       transform="matrix(0.2,0,0,0.2,400,200)"
       id="g5314"
       style="fill:#f1e5e3;fill-opacity:1" />
  </g>
  <g
     id="g5318"
     transform="matrix(0.6,0,0,0.6,300,-60)"
     style="fill:#f1e5e3;fill-opacity:1">
    <g
       id="g5320"
       transform="matrix(0.2,0,0,0.2,0,200)"
       style="fill:#f1e5e3;fill-opacity:1" />
    <g
       transform="matrix(0.2,0,0,0.2,100,200)"
       id="g5324"
       style="fill:#f1e5e3;fill-opacity:1" />
    <g
       id="g5328"
       transform="matrix(0.2,0,0,0.2,200,200)"
       style="fill:#f1e5e3;fill-opacity:1" />
    <g
       transform="matrix(0.2,0,0,0.2,300,200)"
       id="g5332"
       style="fill:#f1e5e3;fill-opacity:1" />
    <g
       id="g5336"
       transform="matrix(0.2,0,0,0.2,400,200)"
       style="fill:#f1e5e3;fill-opacity:1" />
  </g>
  <g
     transform="matrix(0.6,0,0,0.6,300,-90)"
     id="g5340"
     style="fill:#f1e5e3;fill-opacity:1">
    <g
       transform="matrix(0.2,0,0,0.2,0,200)"
       id="g5342"
       style="fill:#f1e5e3;fill-opacity:1" />
    <g
       id="g5346"
       transform="matrix(0.2,0,0,0.2,100,200)"
       style="fill:#f1e5e3;fill-opacity:1" />
    <g
       transform="matrix(0.2,0,0,0.2,200,200)"
       id="g5350"
       style="fill:#f1e5e3;fill-opacity:1" />
    <g
       id="g5354"
       transform="matrix(0.2,0,0,0.2,300,200)"
       style="fill:#f1e5e3;fill-opacity:1" />
    <g
       transform="matrix(0.2,0,0,0.2,400,200)"
       id="g5358"
       style="fill:#f1e5e3;fill-opacity:1" />
  </g>
  <g
     id="g5364"
     transform="matrix(0.12,0,0,0.12,300,0)"
     style="fill:#f1e5e3;fill-opacity:1" />
  <g
     transform="matrix(0.12,0,0,0.12,360,0)"
     id="g5368"
     style="fill:#f1e5e3;fill-opacity:1" />
  <g
     id="g5372"
     transform="matrix(0.12,0,0,0.12,420,0)"
     style="fill:#f1e5e3;fill-opacity:1" />
  <g
     transform="matrix(0.12,0,0,0.12,480,0)"
     id="g5376"
     style="fill:#f1e5e3;fill-opacity:1" />
  <path
     id="path5382"
     style="fill:#f1e5e3;fill-opacity:1;stroke-width:0.12"
     d="m 0,0 v 2.5625 2.5605469 l 1.5292969,0.072266 c 5.927796,0.2797597 11.7137741,2.8836968 16.0527341,7.2226561 1.276968,1.276976 3.223218,3.707257 3.148438,3.93164 -0.02006,0.06019 -0.578231,0.312706 -1.240235,0.5625 -0.661992,0.249794 -1.670522,0.672479 -2.240234,0.939453 -0.808308,0.378783 -1.07216,0.455895 -1.201172,0.347657 -0.09094,-0.07629 -0.538414,-0.591448 -0.996094,-1.144531 C 12.46803,13.931276 8.3508011,11.476896 4.1894531,10.578125 3.3236171,10.391123 0.85575575,10.092571 0.08984375,10.082031 0.04034375,10.08135 0,11.203477 0,12.576172 v 2.496094 l 1.3496094,0.136718 c 3.057384,0.312732 5.6126797,1.354949 8.0273437,3.271485 1.0006439,0.79422 2.3828129,2.278979 2.3828129,2.560547 0,0.08546 -0.3375,0.426829 -0.75,0.757812 -0.4125,0.330984 -1.1893469,1.015625 -1.7265629,1.521484 -0.537204,0.50586 -1.0131617,0.919922 -1.0585937,0.919922 -0.045444,0 -0.488955,-0.430395 -0.984375,-0.957031 C 5.4589424,21.389678 3.398184,20.379886 0.75,20.105469 L 0,20.027344 v 2.513672 2.513672 l 0.73046875,0.128906 c 1.58517605,0.279225 2.92119465,1.236123 3.58789065,2.570312 0.439512,0.879535 0.445864,1.039206 0.0625,1.646485 -0.165,0.261377 -0.3007813,0.502797 -0.3007813,0.537109 0,0.03431 1.3657163,0.0625 3.0351563,0.0625 H 10.150391 L 10.625,29.371094 c 0.26106,-0.345946 1.068922,-1.223993 1.794922,-1.951172 3.999696,-4.006194 9.183263,-6.502817 14.83789,-7.146484 1.812841,-0.206357 5.425827,-0.08845 7.123047,0.232421 4.050576,0.765791 7.351097,2.210278 10.619141,4.648438 1.328148,0.990879 3.57508,3.156788 4.375,4.216797 L 49.849609,30 h 3.035157 c 1.66944,0 3.035152,-0.02819 3.035156,-0.0625 0,-0.03431 -0.135781,-0.275732 -0.300781,-0.537109 -0.383368,-0.607279 -0.377012,-0.76695 0.0625,-1.646485 0.666696,-1.334189 2.002702,-2.291087 3.58789,-2.570312 L 60,25.054688 v -5.027344 l -0.75,0.07813 c -2.648184,0.274417 -4.708942,1.284209 -6.490234,3.177734 -0.49542,0.526638 -0.938935,0.957031 -0.984375,0.957031 -0.04543,0 -0.52139,-0.414062 -1.058594,-0.919922 -0.537216,-0.505859 -1.314063,-1.1905 -1.726563,-1.521484 -0.4125,-0.330983 -0.75,-0.672352 -0.75,-0.757812 0,-0.281568 1.382169,-1.766327 2.382813,-2.560547 2.414664,-1.916536 4.96996,-2.958753 8.027344,-3.271485 L 60,15.072266 v -2.496094 c 0,-1.372695 -0.04034,-2.494825 -0.08984,-2.494141 -0.0495,6.81e-4 -0.737297,0.05788 -1.529297,0.126953 -4.247376,0.370386 -7.982159,1.924157 -11.291015,4.701172 -0.936504,0.78597 -1.616693,1.494891 -2.988282,3.117188 l -0.277343,0.328125 -1.054688,-0.494141 c -0.580704,-0.27213 -1.597761,-0.699425 -2.259765,-0.949219 -0.662004,-0.249794 -1.220185,-0.50231 -1.240235,-0.5625 -0.07493,-0.224781 1.872346,-2.656843 3.148438,-3.93164 3.91554,-3.9115671 8.876647,-6.3569437 14.359375,-7.0800784 0.74154,-0.097804 1.769468,-0.1777344 2.285156,-0.1777344 H 60 V 5.1230469 0 H 59.369141 C 59.022641,5.516094e-5 58.150312,0.05666473 57.429688,0.125 56.513764,0.2118556 56.095656,0.2114446 56.041016,0.123047 55.988744,0.03845326 54.961624,0.00586567 52.9375,0.02734375 l -3.025391,0.03320312 0.44336,0.63281251 C 50.608153,1.0542353 50.751983,1.368755 50.689453,1.421875 50.629009,1.4732114 50.094,1.6950012 49.5,1.9140625 48.906,2.1331238 47.918259,2.5448069 47.304688,2.8300781 46.01572,3.4293637 46.302651,3.5434133 44.908203,1.8886719 44.428827,1.3198167 43.802053,0.66048437 43.515625,0.42578125 L 42.996094,0 H 17.023438 L 16.599609,0.32226562 C 16.234053,0.60108298 15.263894,1.6519926 14.142578,2.9804688 l -0.316406,0.375 -1.123047,-0.5214844 C 12.085593,2.5468643 11.094,2.1331238 10.5,1.9140625 9.906,1.6950012 9.3709789,1.4732114 9.3105469,1.421875 9.2480029,1.3687552 9.3918592,1.0542353 9.6445312,0.69335938 L 10.087891,0.06054687 7.0625,0.02734375 C 5.038376,0.00586567 4.0112564,0.03845324 3.9589844,0.12304688 3.9043484,0.21144447 3.4862365,0.21185536 2.5703125,0.125 1.8496885,0.05666447 0.97735938,5.516094e-5 0.63085938,0 Z m 29.927734,0.14453125 c 0.47313,-1.9485e-4 0.947502,0.0229397 1.421875,0.0703125 3.048684,0.30445303 5.60848,1.34575085 8.027344,3.26562505 1.000644,0.7942199 2.382813,2.2789787 2.382813,2.5605468 0,0.085462 -0.3375,0.4268291 -0.75,0.7578125 -0.4125,0.3309834 -1.189347,1.0156246 -1.726563,1.5214844 -0.537204,0.5058599 -1.005212,0.9199219 -1.039062,0.9199219 -0.03385,0 -0.592256,-0.5264219 -1.242188,-1.1699219 C 35.694517,6.77583 34.627966,6.0953361 33.115234,5.5917969 30.48019,4.7146759 27.565014,5.0067683 25.080078,6.3964844 24.470118,6.7376081 23.798939,7.2773639 22.998047,8.0703125 22.348115,8.7138125 21.781351,9.237415 21.738281,9.234375 21.695221,9.231335 21.201625,8.79246 20.640625,8.2597656 20.079625,7.7270711 19.309188,7.0470483 18.929688,6.7480469 18.550187,6.4490455 18.240234,6.1324909 18.240234,6.0449219 c 0,-0.2848854 1.376133,-1.7654416 2.382813,-2.5644531 2.743839,-2.1778083 5.992782,-3.33457359 9.304687,-3.33593755 z M 30,10.132812 c 1.202073,0 2.403674,0.44552 3.353516,1.333985 0.592968,0.554656 1.326172,1.791717 1.326172,2.238281 0,0.124629 -0.187461,0.520523 -0.417969,0.88086 l -0.419922,0.65625 -0.871094,-0.0918 C 32.491711,15.100391 31.155,15.060547 30,15.060547 c -1.155,0 -2.491711,0.03984 -2.970703,0.08984 l -0.871094,0.0918 -0.419922,-0.65625 c -0.230508,-0.360338 -0.417969,-0.756231 -0.417969,-0.88086 0,-0.446564 0.733204,-1.683622 1.326172,-2.238281 C 27.596326,10.578332 28.797927,10.132812 30,10.132812 Z m 0,15.007813 c -3.044982,0 -6.089551,0.698878 -8.873047,2.095703 -1.165716,0.584985 -2.94991,1.733823 -3.726562,2.398438 L 16.980469,29.994141 30,29.992188 l 13.019531,-0.002 -0.419922,-0.363281 C 41.858873,28.985752 40.063879,27.83391 38.873047,27.236328 36.089551,25.839503 33.044982,25.140625 30,25.140625 Z M 0,30 v 2.5625 2.560547 l 1.5292969,0.07227 c 5.927796,0.27976 11.7137741,2.883698 16.0527341,7.222657 1.276968,1.276976 3.223218,3.707257 3.148438,3.93164 -0.02006,0.06018 -0.578231,0.312706 -1.240235,0.5625 -0.661992,0.249794 -1.670522,0.672478 -2.240234,0.939453 -0.808308,0.378793 -1.07216,0.455895 -1.201172,0.347657 -0.09094,-0.07629 -0.538414,-0.591448 -0.996094,-1.144531 C 12.46803,43.931276 8.3508011,41.476896 4.1894531,40.578125 3.3236171,40.391123 0.85575575,40.092571 0.08984375,40.082031 0.04034375,40.08135 0,41.203477 0,42.576172 v 2.496094 l 1.3496094,0.136718 c 3.057384,0.312732 5.6126797,1.354949 8.0273437,3.271485 1.0006439,0.79422 2.3828129,2.278979 2.3828129,2.560547 0,0.08546 -0.3375,0.426829 -0.75,0.757812 -0.4125,0.330984 -1.1893469,1.015624 -1.7265629,1.521484 -0.537204,0.505861 -1.0131617,0.919922 -1.0585937,0.919922 -0.045444,0 -0.488955,-0.430395 -0.984375,-0.957031 C 5.4589424,51.389678 3.398184,50.379886 0.75,50.105469 L 0,50.027344 v 2.513672 2.513672 l 0.73046875,0.128906 c 1.58517605,0.279225 2.92119465,1.236123 3.58789065,2.570312 0.439512,0.879535 0.445864,1.039206 0.0625,1.646485 -0.165,0.261377 -0.3007813,0.502797 -0.3007813,0.537109 0,0.03431 1.3657163,0.0625 3.0351563,0.0625 H 10.150391 L 10.625,59.371094 c 0.26106,-0.345946 1.068922,-1.223993 1.794922,-1.951172 3.999696,-4.006194 9.183263,-6.502816 14.83789,-7.146484 1.812841,-0.206357 5.425827,-0.08845 7.123047,0.232421 4.050576,0.765791 7.351097,2.210278 10.619141,4.648438 1.328148,0.990879 3.57508,3.156788 4.375,4.216797 L 49.849609,60 h 3.035157 c 1.66944,0 3.035152,-0.02819 3.035156,-0.0625 0,-0.03431 -0.135781,-0.275732 -0.300781,-0.537109 -0.383368,-0.607279 -0.377012,-0.76695 0.0625,-1.646485 0.666696,-1.334189 2.002702,-2.291087 3.58789,-2.570312 L 60,55.054688 v -5.027344 l -0.75,0.07813 c -2.648184,0.274417 -4.708942,1.284209 -6.490234,3.177734 -0.49542,0.526638 -0.938935,0.957031 -0.984375,0.957031 -0.04543,0 -0.52139,-0.414062 -1.058594,-0.919922 -0.537216,-0.50586 -1.314063,-1.1905 -1.726563,-1.521484 -0.4125,-0.330983 -0.75,-0.672352 -0.75,-0.757812 0,-0.281568 1.382169,-1.766327 2.382813,-2.560547 2.414664,-1.916536 4.96996,-2.958753 8.027344,-3.271485 L 60,45.072266 v -2.496094 c 0,-1.372695 -0.04034,-2.494861 -0.08984,-2.494141 -0.0495,6.81e-4 -0.737297,0.05789 -1.529297,0.126953 -4.247376,0.370386 -7.982159,1.924157 -11.291015,4.701172 -0.936504,0.78597 -1.616693,1.494891 -2.988282,3.117188 l -0.277343,0.328125 -1.054688,-0.494141 c -0.580704,-0.27213 -1.597761,-0.699425 -2.259765,-0.949219 -0.662004,-0.249794 -1.220185,-0.50232 -1.240235,-0.5625 -0.07493,-0.224781 1.872346,-2.656843 3.148438,-3.93164 3.91554,-3.911567 8.876647,-6.356944 14.359375,-7.080078 0.74154,-0.09781 1.769468,-0.177735 2.285156,-0.177735 H 60 V 35.123047 30 h -0.630859 c -0.3465,5.5e-5 -1.218829,0.05667 -1.939453,0.125 -0.915924,0.08686 -1.334032,0.08645 -1.388672,-0.002 -0.05227,-0.08455 -1.079392,-0.117183 -3.103516,-0.0957 l -3.025391,0.0332 0.44336,0.632812 c 0.252684,0.360876 0.396514,0.675396 0.333984,0.728516 -0.06044,0.05134 -0.595453,0.273127 -1.189453,0.492187 -0.594,0.219062 -1.581741,0.630745 -2.195312,0.916016 -1.288968,0.599285 -1.002037,0.713336 -2.396485,-0.941406 -0.479376,-0.568855 -1.10615,-1.228188 -1.392578,-1.462891 L 42.996094,30 H 30.009766 17.023438 l -0.423829,0.322266 c -0.365556,0.278818 -1.335715,1.329726 -2.457031,2.658203 l -0.316406,0.375 -1.123047,-0.521485 C 12.085593,32.546864 11.094,32.133125 10.5,31.914062 9.906,31.695002 9.3709789,31.473211 9.3105469,31.421875 9.2480029,31.368755 9.3918592,31.054227 9.6445312,30.693359 L 10.087891,30.060547 7.0625,30.027344 c -2.024124,-0.02147 -3.0512436,0.01111 -3.1035156,0.0957 -0.054636,0.08839 -0.4727479,0.0888 -1.3886719,0.002 C 1.8496885,30.056664 0.97735938,30.000055 0.63085938,30 Z m 29.927734,0.144531 c 0.47313,-1.95e-4 0.947502,0.02294 1.421875,0.07031 3.048684,0.304453 5.60848,1.345751 8.027344,3.265625 1.000644,0.79422 2.382813,2.278979 2.382813,2.560547 0,0.08546 -0.3375,0.426829 -0.75,0.757812 -0.4125,0.330984 -1.189347,1.015625 -1.726563,1.521484 -0.537204,0.50586 -1.005212,0.919922 -1.039062,0.919922 -0.03385,0 -0.592256,-0.526421 -1.242188,-1.169922 -1.307436,-1.294481 -2.373987,-1.974976 -3.886719,-2.478515 -2.635044,-0.877121 -5.55022,-0.585029 -8.035156,0.804687 -0.60996,0.341124 -1.281139,0.880879 -2.082031,1.673828 -0.649932,0.6435 -1.216696,1.167063 -1.259766,1.164063 -0.04306,-0.003 -0.536656,-0.441915 -1.097656,-0.974609 -0.561,-0.532695 -1.331437,-1.212718 -1.710937,-1.511719 -0.379501,-0.299002 -0.689454,-0.615555 -0.689454,-0.703125 0,-0.284886 1.376133,-1.765441 2.382813,-2.564453 2.743839,-2.177809 5.992782,-3.334574 9.304687,-3.335938 z M 30,40.132812 c 1.202073,0 2.403674,0.44552 3.353516,1.333985 0.592968,0.554656 1.326172,1.791717 1.326172,2.238281 0,0.124629 -0.187461,0.520522 -0.417969,0.88086 l -0.419922,0.65625 -0.871094,-0.0918 C 32.491711,45.100381 31.155,45.060547 30,45.060547 c -1.155,0 -2.491711,0.03984 -2.970703,0.08984 l -0.871094,0.0918 -0.419922,-0.65625 c -0.230508,-0.360338 -0.417969,-0.756231 -0.417969,-0.88086 0,-0.446564 0.733204,-1.683622 1.326172,-2.238281 C 27.596326,40.578332 28.797927,40.132812 30,40.132812 Z m 0,15.007813 c -3.044982,0 -6.089551,0.698878 -8.873047,2.095703 -1.165716,0.584985 -2.94991,1.733823 -3.726562,2.398438 L 16.980469,59.994141 30,59.992188 l 13.019531,-0.002 -0.419922,-0.363281 C 41.858873,58.985752 40.063879,57.83391 38.873047,57.236328 36.089551,55.839503 33.044982,55.140625 30,55.140625 Z" />
</svg>
